<?xml version="1.0" encoding="utf-8"?>
<svg viewBox="0 0 100 125" xmlns="http://www.w3.org/2000/svg">
  <g data-name="Group" transform="matrix(0.9999999999999999, 0, 0, 0.9999999999999999, -1.7763568394002505e-15, -1.7763568394002505e-15)">
    <path data-name="Compound Path" d="M67.2,42c-.9-.8-6.6-5.5-18-6.2V25.3a3,3,0,0,0-5.1-2.1L21.5,45.6a3,3,0,0,0,0,4.2L44.1,72.5a3,3,0,0,0,5.1-2.1v-11C54.3,59.3,64,61.1,71.7,74L73,76.3a3,3,0,0,0,2.6,1.5h.5a3,3,0,0,0,2.4-2.4l.5-2.6C79.1,72.5,82.3,54.7,67.2,42ZM58.7,55a27.9,27.9,0,0,0-9.2-1.6,23.5,23.5,0,0,0-3.7.3,3,3,0,0,0-2.5,3v6.5L27.9,47.7,43.3,32.5v6.3a3,3,0,0,0,3,3h.3c11.3,0,16.4,4.5,16.6,4.7h.1a27.4,27.4,0,0,1,10,19.2A32.2,32.2,0,0,0,58.7,55Z"/>
  </g>
</svg>