<?xml version="1.0" encoding="UTF-8" ?>
<!DOCTYPE svg PUBLIC "-//W3C//DTD SVG 1.1//EN" "http://www.w3.org/Graphics/SVG/1.1/DTD/svg11.dtd">
<svg width="128pt" height="128pt" viewBox="0 0 128 128" version="1.1" xmlns="http://www.w3.org/2000/svg">
<g id="#000000ff">
<path fill="#000000" opacity="1.00" d=" M 59.56 0.00 L 68.43 0.00 C 83.66 1.34 98.53 7.73 109.23 18.78 C 120.26 29.48 126.66 44.35 128.00 59.57 L 128.00 69.39 C 126.29 84.25 120.05 98.74 109.22 109.22 C 98.75 120.06 84.27 126.30 69.41 128.00 L 58.60 128.00 C 43.74 126.30 29.25 120.06 18.78 109.22 C 7.94 98.76 1.70 84.27 0.00 69.42 L 0.00 59.57 C 1.33 44.34 7.73 29.47 18.78 18.78 C 29.47 7.74 44.34 1.34 59.56 0.00 M 56.41 10.56 C 44.71 12.26 33.56 17.83 25.36 26.38 C 14.83 36.99 9.22 52.18 10.12 67.09 C 10.85 80.18 16.52 92.92 25.87 102.13 C 37.93 114.38 56.12 120.23 73.06 117.18 C 87.32 114.86 100.39 106.38 108.50 94.45 C 117.22 81.91 120.15 65.54 116.30 50.76 C 113.01 37.44 104.32 25.59 92.70 18.31 C 82.03 11.52 68.91 8.79 56.41 10.56 Z" />
<path fill="#000000" opacity="1.00" d=" M 54.42 36.39 C 58.70 33.88 63.72 39.65 60.69 43.54 C 55.16 49.69 48.77 55.01 43.14 61.07 C 41.44 62.85 41.54 66.01 43.37 67.67 C 48.92 73.45 54.94 78.78 60.39 84.66 C 62.83 87.28 61.20 92.12 57.64 92.67 C 55.05 93.35 53.02 91.32 51.35 89.67 C 46.37 84.64 41.27 79.72 36.27 74.71 C 31.23 69.85 30.46 61.29 34.64 55.66 C 37.54 51.92 41.31 48.98 44.58 45.58 C 47.88 42.54 50.74 38.98 54.42 36.39 Z" />
<path fill="#000000" opacity="1.00" d=" M 54.38 59.36 C 56.17 58.68 58.12 58.82 59.99 58.75 C 70.00 58.80 80.01 58.77 90.02 58.76 C 92.23 58.88 94.98 58.62 96.48 60.61 C 98.93 63.45 96.93 68.81 93.00 68.71 C 80.71 68.80 68.40 68.88 56.12 68.68 C 51.28 68.67 50.00 61.18 54.38 59.36 Z" />
</g>
</svg>
