<?xml version="1.0" encoding="UTF-8" ?>
<!DOCTYPE svg PUBLIC "-//W3C//DTD SVG 1.1//EN" "http://www.w3.org/Graphics/SVG/1.1/DTD/svg11.dtd">
<svg width="200pt" height="200pt" viewBox="0 0 200 200" version="1.1" xmlns="http://www.w3.org/2000/svg">
<g id="#000000ff">
<path fill="#000000" opacity="1.00" d=" M 76.61 30.56 C 86.81 26.22 98.27 25.02 109.18 26.90 C 126.32 29.76 141.95 40.04 151.73 54.35 C 159.29 65.29 163.34 78.70 162.62 92.02 C 161.79 107.41 155.00 122.23 144.53 133.45 C 141.97 136.28 138.92 138.59 136.22 141.27 C 134.78 159.31 118.12 174.77 99.95 174.50 C 82.09 174.27 66.15 158.94 64.64 141.24 C 56.27 134.59 48.89 126.50 44.22 116.80 C 37.53 103.44 35.40 87.64 39.34 73.14 C 44.41 54.27 58.62 38.15 76.61 30.56 M 89.42 40.67 C 75.15 43.41 62.48 53.13 56.19 66.23 C 48.74 81.37 49.06 100.42 58.11 114.83 C 62.34 121.77 68.48 127.32 75.25 131.72 C 78.17 133.45 78.24 137.08 78.27 140.07 C 78.39 147.38 82.33 154.70 88.89 158.14 C 95.99 161.85 104.99 161.84 112.08 158.09 C 118.27 154.80 122.16 148.02 122.55 141.10 C 122.87 138.25 122.22 134.79 124.56 132.62 C 127.48 130.18 130.79 128.23 133.47 125.51 C 144.22 115.51 150.01 100.57 148.94 85.94 C 148.26 71.47 141.07 57.28 129.19 48.84 C 117.88 40.59 103.04 38.01 89.42 40.67 Z" />
<path fill="#000000" opacity="1.00" d=" M 94.32 138.48 C 98.05 137.95 101.95 137.93 105.68 138.50 C 110.96 140.00 111.43 148.18 106.37 150.29 C 102.52 151.41 98.28 151.03 94.34 150.59 C 88.67 149.04 88.64 140.05 94.32 138.48 Z" />
</g>
</svg>
