<?xml version="1.0" encoding="UTF-8" ?>
<!DOCTYPE svg PUBLIC "-//W3C//DTD SVG 1.1//EN" "http://www.w3.org/Graphics/SVG/1.1/DTD/svg11.dtd">
<svg width="200pt" height="200pt" viewBox="0 0 200 200" version="1.1" xmlns="http://www.w3.org/2000/svg">
<g id="#000000ff">
<path fill="#000000" opacity="1.00" d=" M 48.36 30.47 C 50.54 29.98 52.79 29.88 55.02 29.85 C 70.33 29.85 85.63 29.90 100.94 29.82 C 110.86 30.10 120.68 34.26 127.64 41.36 C 139.30 53.04 150.98 64.70 162.67 76.37 C 170.00 83.55 174.32 93.75 174.31 104.02 C 174.30 116.67 174.33 129.33 174.30 141.98 C 174.22 156.77 160.84 170.11 146.04 170.11 C 115.37 170.13 84.69 170.13 54.02 170.12 C 39.19 170.16 25.75 156.81 25.68 141.98 C 25.66 113.99 25.66 85.99 25.68 58.00 C 25.74 45.07 35.92 33.34 48.36 30.47 M 51.42 43.63 C 44.55 43.98 39.13 50.28 39.35 57.07 C 39.26 85.06 39.35 113.05 39.30 141.03 C 39.22 144.99 40.02 149.22 42.79 152.20 C 45.57 155.33 49.89 156.51 53.95 156.48 C 84.63 156.49 115.31 156.48 145.99 156.48 C 149.85 156.49 153.94 155.49 156.74 152.66 C 159.84 149.68 160.78 145.20 160.68 141.05 C 160.64 128.36 160.72 115.67 160.64 102.98 C 160.68 97.05 158.23 91.21 154.01 87.05 C 142.03 75.02 129.99 63.04 118.01 51.02 C 115.42 48.40 112.42 46.09 108.91 44.87 C 105.15 43.29 100.99 44.01 97.03 43.48 C 81.83 43.60 66.61 43.28 51.42 43.63 Z" />
<path fill="#000000" opacity="1.00" d=" M 63.33 77.04 C 71.85 76.04 80.49 76.65 89.06 76.61 C 94.11 76.42 97.90 82.73 95.05 87.00 C 93.41 90.31 89.31 91.00 85.97 90.85 C 79.36 90.67 72.73 91.05 66.12 90.67 C 63.47 90.57 61.66 88.45 59.97 86.68 C 59.74 84.58 59.75 82.47 60.02 80.38 C 61.16 79.31 62.26 78.19 63.33 77.04 Z" />
<path fill="#000000" opacity="1.00" d=" M 63.41 110.37 C 64.78 109.56 66.42 109.62 67.96 109.56 C 85.65 109.61 103.34 109.55 121.03 109.59 C 124.66 109.31 128.07 112.34 128.21 115.98 C 128.57 119.89 125.00 123.51 121.07 123.20 C 103.38 123.26 85.69 123.18 68.01 123.24 C 65.53 123.37 62.82 122.74 61.28 120.64 C 58.62 117.50 59.73 112.19 63.41 110.37 Z" />
</g>
</svg>
