<?xml version="1.0" encoding="UTF-8" ?>
<!DOCTYPE svg PUBLIC "-//W3C//DTD SVG 1.1//EN" "http://www.w3.org/Graphics/SVG/1.1/DTD/svg11.dtd">
<svg width="200pt" height="200pt" viewBox="0 0 200 200" version="1.1" xmlns="http://www.w3.org/2000/svg">
<g id="#000000ff">
<path fill="#000000" opacity="1.00" d=" M 67.85 85.04 C 68.34 81.87 72.82 80.70 74.80 83.25 C 83.27 91.61 91.62 100.09 100.06 108.47 C 108.13 100.40 116.22 92.36 124.24 84.25 C 125.35 83.27 126.39 81.94 127.98 81.83 C 130.72 81.49 133.13 84.48 132.16 87.09 C 131.54 88.41 130.45 89.42 129.44 90.45 C 120.52 99.21 111.81 108.18 102.88 116.91 C 101.42 118.57 98.65 118.53 97.21 116.88 C 88.11 107.96 79.20 98.83 70.13 89.89 C 68.87 88.61 67.30 87.03 67.85 85.04 Z" />
</g>
</svg>
