<?xml version="1.0" encoding="UTF-8" ?>
<!DOCTYPE svg PUBLIC "-//W3C//DTD SVG 1.1//EN" "http://www.w3.org/Graphics/SVG/1.1/DTD/svg11.dtd">
<svg width="16pt" height="88pt" viewBox="0 0 16 88" version="1.1" xmlns="http://www.w3.org/2000/svg">
<g id="#9a9a9aff">
<path fill="#9a9a9a" opacity="1.00" d=" M 3.28 2.20 C 8.12 -1.59 15.84 2.14 16.00 8.29 L 16.00 8.63 C 15.57 13.39 10.84 17.55 6.00 16.05 C -0.05 14.74 -1.91 5.70 3.28 2.20 Z" />
<path fill="#9a9a9a" opacity="1.00" d=" M 0.52 41.64 C 2.09 35.82 10.30 34.42 14.01 38.90 C 17.44 42.67 15.78 49.35 11.03 51.11 C 8.19 52.89 4.80 51.43 2.42 49.59 C 0.43 47.42 0.98 44.24 0.00 41.64 L 0.00 41.15 C 0.13 41.27 0.39 41.52 0.52 41.64 Z" />
<path fill="#9a9a9a" opacity="1.00" d=" M 2.77 73.66 C 7.43 69.26 15.85 72.89 16.00 79.30 L 16.00 79.61 C 15.58 84.01 11.59 88.11 6.96 87.27 C 0.63 86.78 -2.21 77.64 2.77 73.66 Z" />
</g>
</svg>
