<?xml version="1.0" encoding="UTF-8" ?>
<!DOCTYPE svg PUBLIC "-//W3C//DTD SVG 1.1//EN" "http://www.w3.org/Graphics/SVG/1.1/DTD/svg11.dtd">
<svg width="512pt" height="513pt" viewBox="0 0 512 513" version="1.1" xmlns="http://www.w3.org/2000/svg">
<g id="#200e32ff">
<path fill="#200e32" opacity="1.00" d=" M 142.34 27.31 C 149.54 26.63 156.77 26.58 164.00 26.64 C 222.00 26.65 280.00 26.64 338.00 26.65 C 351.59 26.70 365.28 26.16 378.76 28.34 C 405.22 32.21 430.67 44.34 449.21 63.79 C 471.46 86.71 482.90 118.40 484.87 149.93 C 485.56 161.61 485.21 173.31 485.29 185.00 C 485.26 240.99 485.35 296.99 485.25 352.98 C 484.87 387.99 473.24 424.00 448.19 449.19 C 426.78 471.22 396.46 483.22 366.05 484.94 C 357.04 485.47 348.01 485.26 339.00 485.29 C 280.33 485.30 221.66 485.28 163.00 485.30 C 151.09 485.40 139.11 484.94 127.41 482.61 C 107.75 478.71 88.76 470.54 73.20 457.78 C 49.78 438.90 34.81 410.83 29.53 381.43 C 26.03 364.85 26.68 347.83 26.65 331.00 C 26.64 276.33 26.66 221.67 26.64 167.00 C 26.55 155.63 27.07 144.22 29.05 133.01 C 33.81 104.59 47.25 77.17 68.93 57.88 C 89.02 39.73 115.50 29.45 142.34 27.31 M 142.37 59.39 C 120.40 61.69 98.76 71.28 83.99 88.00 C 66.21 107.36 59.00 134.22 58.65 160.01 C 58.63 223.34 58.66 286.67 58.64 350.00 C 58.55 372.99 63.97 396.63 77.33 415.65 C 88.86 432.45 106.75 444.48 126.42 449.56 C 144.19 454.55 162.78 453.08 181.00 453.29 C 239.33 453.29 297.66 453.30 356.00 453.29 C 369.13 453.37 382.31 451.25 394.62 446.63 C 410.45 440.73 424.54 430.09 434.23 416.22 C 444.87 401.27 450.65 383.25 452.45 365.09 C 453.64 355.10 453.24 345.03 453.29 335.00 C 453.29 277.00 453.30 219.00 453.29 161.00 C 453.28 137.39 447.19 113.18 432.99 94.01 C 420.62 77.27 401.85 65.79 381.59 61.40 C 365.99 57.67 349.88 58.81 334.00 58.65 C 278.00 58.64 222.00 58.65 166.00 58.65 C 158.12 58.62 150.21 58.49 142.37 59.39 Z" />
<path fill="#200e32" opacity="1.00" d=" M 252.32 132.26 C 261.82 129.08 272.82 136.93 272.69 146.98 C 272.75 216.65 272.66 286.32 272.73 355.99 C 272.73 362.13 273.60 369.17 269.12 374.12 C 263.31 381.73 250.65 381.72 244.65 374.36 C 239.86 369.11 240.73 361.55 240.69 355.00 C 240.74 286.33 240.69 217.66 240.71 148.98 C 240.26 141.60 245.04 134.16 252.32 132.26 Z" />
<path fill="#200e32" opacity="1.00" d=" M 152.36 202.36 C 158.91 200.22 166.70 202.77 170.45 208.62 C 172.80 211.91 173.31 216.05 173.32 220.00 C 173.25 267.67 173.32 315.35 173.29 363.03 C 173.63 370.08 168.96 377.03 162.19 379.16 C 155.38 381.42 147.33 378.55 143.62 372.37 C 140.44 367.52 141.37 361.47 141.27 356.00 C 141.31 309.98 141.30 263.96 141.27 217.94 C 140.96 211.01 145.77 204.39 152.36 202.36 Z" />
<path fill="#200e32" opacity="1.00" d=" M 351.30 279.31 C 360.82 276.89 371.07 285.10 370.66 294.93 C 370.62 317.95 370.66 340.98 370.65 364.00 C 370.86 372.07 363.98 379.47 355.91 379.84 C 348.68 380.56 341.39 375.61 339.41 368.62 C 338.59 365.48 338.68 362.21 338.66 359.00 C 338.79 337.65 338.64 316.30 338.72 294.96 C 338.55 287.61 344.13 280.77 351.30 279.31 Z" />
</g>
</svg>
