<?xml version="1.0" encoding="UTF-8" ?>
<!DOCTYPE svg PUBLIC "-//W3C//DTD SVG 1.1//EN" "http://www.w3.org/Graphics/SVG/1.1/DTD/svg11.dtd">
<svg width="200pt" height="200pt" viewBox="0 0 200 200" version="1.1" xmlns="http://www.w3.org/2000/svg">
<g id="#000000ff">
<path fill="#000000" opacity="1.00" d=" M 69.99 64.10 C 81.99 54.77 99.54 53.59 112.71 61.16 C 124.18 67.48 131.94 79.93 132.53 93.02 C 133.21 103.40 129.34 113.76 122.51 121.54 C 129.68 128.69 136.88 135.82 143.99 143.03 C 146.24 144.58 144.72 148.70 141.96 148.18 C 140.55 148.34 139.75 146.94 138.76 146.19 C 131.91 139.31 125.06 132.44 118.16 125.61 C 112.33 130.06 105.41 133.17 98.08 133.92 C 86.94 135.27 75.32 131.52 67.12 123.86 C 58.88 116.36 54.20 105.17 54.61 94.04 C 54.84 82.40 60.69 71.08 69.99 64.10 M 89.39 62.45 C 77.71 63.85 67.20 72.04 62.93 82.99 C 58.68 93.42 60.33 105.98 67.18 114.94 C 75.70 126.73 92.44 131.46 105.86 125.80 C 120.17 120.31 129.22 104.01 125.98 88.96 C 123.18 72.33 106.09 59.91 89.39 62.45 Z" />
</g>
</svg>
