<?xml version="1.0" encoding="utf-8"?>
<svg viewBox="0 0 32 40" xmlns="http://www.w3.org/2000/svg">
  <g data-name="Layer 2" transform="matrix(1, 0, 0, 1, 1.4210854715202004e-14, 0)">
    <path d="M21.98,29.506a6.991,6.991,0,0,1-4.166-1.365A67.014,67.014,0,0,1,3.859,14.185a7.057,7.057,0,0,1,.674-9.133L6.872,2.714a3,3,0,0,1,4.242,0l3.633,3.634a3,3,0,0,1,0,4.243l-.5.5h0a1.33,1.33,0,0,0-.034,1.785,65.226,65.226,0,0,0,4.911,4.913,1.333,1.333,0,0,0,1.785-.034l.5-.505a3,3,0,0,1,4.243,0l3.633,3.634a3,3,0,0,1,0,4.242l-2.339,2.338A7.013,7.013,0,0,1,21.98,29.506ZM8.993,3.836a1,1,0,0,0-.707.292L5.947,6.466a5.042,5.042,0,0,0-.48,6.528A64.937,64.937,0,0,0,19.006,26.533a5.039,5.039,0,0,0,6.527-.481l2.339-2.338a1,1,0,0,0,0-1.414l-3.633-3.633a1.025,1.025,0,0,0-1.415,0l-.5.5a3.335,3.335,0,0,1-4.535.108,67.368,67.368,0,0,1-5.063-5.063,3.338,3.338,0,0,1,.108-4.536l.5-.5a1,1,0,0,0,0-1.414L9.7,4.128A1,1,0,0,0,8.993,3.836Zm4.544,6.55h0Z"/>
  </g>
</svg>