<?xml version="1.0" encoding="UTF-8" ?>
<!DOCTYPE svg PUBLIC "-//W3C//DTD SVG 1.1//EN" "http://www.w3.org/Graphics/SVG/1.1/DTD/svg11.dtd">
<svg width="200pt" height="200pt" viewBox="0 0 200 200" version="1.1" xmlns="http://www.w3.org/2000/svg">
<g id="#000000ff">
<path fill="#000000" opacity="1.00" d=" M 86.62 64.67 C 90.08 60.98 95.49 62.17 99.99 62.00 C 104.46 62.11 109.81 61.09 113.22 64.75 C 116.90 68.16 115.90 73.52 115.99 78.00 C 122.68 78.05 129.36 77.92 136.04 78.03 C 139.13 77.83 141.19 81.84 139.29 84.27 C 137.59 86.78 134.19 85.81 131.65 86.02 C 130.37 99.70 129.17 113.40 127.90 127.08 C 127.54 133.06 122.03 138.12 116.04 137.98 C 105.35 138.02 94.67 138.02 83.98 137.98 C 77.97 138.13 72.40 133.07 72.07 127.05 C 70.82 113.38 69.61 99.69 68.33 86.02 C 65.79 85.81 62.41 86.78 60.71 84.28 C 58.82 81.88 60.81 77.87 63.89 78.04 C 70.58 77.92 77.27 78.05 83.97 78.00 C 84.12 73.51 82.96 68.13 86.62 64.67 M 92.09 70.09 C 91.98 72.73 91.89 75.36 91.97 77.99 C 97.31 78.00 102.65 78.00 107.99 78.00 C 107.57 75.48 109.06 72.00 107.08 70.09 C 102.09 69.87 97.08 69.99 92.09 70.09 M 76.38 86.00 C 77.59 99.36 78.78 112.73 80.02 126.08 C 79.97 128.61 82.48 130.37 84.87 130.00 C 95.29 129.97 105.71 130.07 116.13 129.95 C 118.24 130.02 120.00 128.09 119.98 126.02 C 121.19 112.68 122.40 99.34 123.60 86.00 C 107.86 86.00 92.12 86.00 76.38 86.00 Z" />
<path fill="#000000" opacity="1.00" d=" M 90.31 94.35 C 92.76 93.07 96.09 95.12 95.95 97.90 C 96.10 103.59 95.92 109.28 96.02 114.96 C 95.95 117.13 96.42 119.93 94.26 121.29 C 91.86 123.17 87.88 121.16 88.04 118.10 C 87.93 111.74 88.03 105.38 87.99 99.02 C 87.81 97.18 88.49 95.11 90.31 94.35 Z" />
<path fill="#000000" opacity="1.00" d=" M 106.34 94.34 C 108.79 93.09 112.09 95.13 111.96 97.91 C 111.98 104.94 112.16 112.00 111.86 119.03 C 111.06 122.90 104.90 122.91 104.13 119.02 C 103.81 112.33 104.08 105.63 104.00 98.93 C 103.81 97.11 104.54 95.08 106.34 94.34 Z" />
</g>
</svg>
