<?xml version="1.0" encoding="UTF-8" ?>
<!DOCTYPE svg PUBLIC "-//W3C//DTD SVG 1.1//EN" "http://www.w3.org/Graphics/SVG/1.1/DTD/svg11.dtd">
<svg width="128pt" height="128pt" viewBox="0 0 128 128" version="1.1" xmlns="http://www.w3.org/2000/svg">
<path fill="#000000" opacity="1.00" d=" M 62.60 0.00 L 65.01 0.00 C 68.87 0.80 71.41 5.07 69.71 8.76 C 68.02 13.33 60.89 13.74 58.63 9.45 C 56.33 5.84 58.76 1.21 62.60 0.00 Z" />
<path fill="#000000" opacity="1.00" d=" M 41.30 5.19 C 44.73 3.13 49.47 5.96 48.97 10.00 C 48.86 13.10 45.65 14.23 43.26 15.26 C 25.47 22.62 12.83 40.77 11.91 59.97 C 11.65 62.53 12.07 65.83 9.52 67.40 C 6.37 69.77 1.39 66.99 1.77 63.06 C 1.41 38.11 17.94 13.94 41.30 5.19 Z" />
<path fill="#000000" opacity="1.00" d=" M 81.24 5.19 C 82.41 4.51 83.64 4.36 84.93 4.72 C 109.42 12.99 127.35 37.91 126.65 63.86 C 126.47 67.56 121.54 69.62 118.73 67.24 C 116.40 65.61 116.84 62.49 116.57 60.03 C 115.57 40.68 102.52 22.74 84.69 15.34 C 82.79 14.38 80.31 13.87 79.29 11.78 C 78.06 9.52 78.99 6.42 81.24 5.19 Z" />
<path fill="#000000" opacity="1.00" d=" M 54.43 31.42 C 58.13 24.26 69.79 24.23 73.53 31.36 C 77.98 39.61 82.74 47.96 89.91 54.18 C 93.23 57.16 97.51 59.38 99.47 63.59 C 101.50 67.43 101.11 71.95 100.04 76.00 C 98.02 83.70 95.26 91.29 91.07 98.08 C 90.03 99.93 88.66 101.76 88.53 103.95 C 88.21 110.50 88.88 117.08 88.35 123.62 C 88.35 125.78 86.45 127.04 84.79 128.00 L 82.57 128.00 C 80.85 127.23 78.79 126.18 78.71 124.00 C 78.15 117.94 78.66 111.82 78.49 105.74 C 73.20 105.52 67.84 106.21 62.59 105.40 C 58.01 104.31 58.29 96.62 63.01 96.00 C 68.95 95.33 74.95 95.91 80.92 95.75 C 85.64 88.10 89.29 79.67 90.84 70.80 C 91.56 67.75 88.55 65.97 86.57 64.33 C 77.24 57.42 70.79 47.50 65.44 37.37 C 65.03 35.59 62.94 35.70 62.52 37.41 C 57.19 47.54 50.73 57.45 41.41 64.35 C 39.42 65.99 36.41 67.78 37.16 70.84 C 38.36 77.80 40.94 84.50 44.19 90.75 C 45.75 93.89 48.24 96.56 49.27 99.94 C 49.90 105.61 49.28 111.33 49.54 117.02 C 49.50 120.92 50.37 126.27 45.80 128.00 L 43.57 128.00 C 41.95 127.24 39.97 126.33 39.76 124.30 C 38.99 117.55 39.85 110.72 39.47 103.94 C 39.37 101.96 38.18 100.30 37.25 98.64 C 32.72 91.40 29.76 83.28 27.73 75.02 C 26.79 71.26 26.67 67.11 28.51 63.60 C 30.47 59.39 34.76 57.19 38.07 54.20 C 45.22 47.98 49.99 39.66 54.43 31.42 Z" />
<path fill="#000000" opacity="1.00" d=" M 61.40 67.47 C 65.05 65.02 70.66 67.58 70.93 72.05 C 71.69 76.58 66.47 80.50 62.32 78.51 C 57.78 76.86 57.21 69.85 61.40 67.47 Z" />
<path fill="#000000" opacity="1.00" d=" M 0.00 80.87 C 0.92 77.13 5.09 74.56 8.74 76.29 C 13.30 78.00 13.74 85.10 9.44 87.38 C 5.83 89.60 1.13 87.30 0.00 83.38 L 0.00 80.87 Z" />
<path fill="#000000" opacity="1.00" d=" M 118.54 76.65 C 122.14 74.35 126.76 76.75 128.00 80.56 L 128.00 83.03 C 127.19 86.87 122.95 89.40 119.27 87.73 C 114.68 86.07 114.25 78.93 118.54 76.65 Z" />
</svg>
