<?xml version="1.0" encoding="UTF-8" ?>
<!DOCTYPE svg PUBLIC "-//W3C//DTD SVG 1.1//EN" "http://www.w3.org/Graphics/SVG/1.1/DTD/svg11.dtd">
<svg width="200pt" height="200pt" viewBox="0 0 200 200" version="1.1" xmlns="http://www.w3.org/2000/svg">
<g id="#000000ff">
<path fill="#000000" opacity="1.00" d=" M 114.39 63.45 C 116.40 62.51 118.29 63.97 119.60 65.37 C 124.74 70.59 129.98 75.71 135.11 80.93 C 137.49 82.80 137.06 87.15 133.99 88.00 C 131.73 88.90 129.92 86.95 128.47 85.52 C 123.39 80.28 118.10 75.24 113.04 69.99 C 110.83 68.13 111.77 64.37 114.39 63.45 Z" />
<path fill="#000000" opacity="1.00" d=" M 96.38 70.38 C 97.20 67.56 101.22 66.57 103.10 68.95 C 112.16 77.88 121.08 86.97 130.14 95.89 C 131.11 96.93 132.24 97.90 132.82 99.23 C 133.82 102.01 130.84 105.16 128.00 104.27 C 126.74 103.73 125.75 102.75 124.69 101.92 C 120.88 105.68 117.13 109.51 113.30 113.26 C 107.42 118.15 106.39 126.26 102.37 132.44 C 100.98 134.25 98.02 134.26 96.49 132.62 C 92.56 128.92 88.87 124.96 85.00 121.19 C 79.97 126.08 75.20 131.25 70.04 135.99 C 66.83 138.88 61.67 133.77 64.60 130.55 C 69.35 125.40 74.49 120.62 79.38 115.60 C 75.63 111.72 71.66 108.04 67.98 104.09 C 66.29 102.56 66.27 99.46 68.21 98.15 C 73.31 95.07 79.24 93.52 84.23 90.25 C 89.18 85.61 93.83 80.65 98.68 75.91 C 97.46 74.34 95.49 72.60 96.38 70.38 M 90.98 95.07 C 87.41 99.00 81.93 100.00 77.40 102.39 C 84.12 109.20 90.85 116.00 97.60 122.79 C 100.01 118.20 101.00 112.63 105.07 109.09 C 109.68 104.62 114.25 100.10 118.79 95.55 C 114.03 90.86 109.33 86.11 104.60 81.39 C 100.05 85.95 95.47 90.47 90.98 95.07 Z" />
</g>
</svg>
