<?xml version="1.0" encoding="utf-8"?>
<svg viewBox="-255 347 100 125" style="enable-background:new -255 347 100 100;" xmlns="http://www.w3.org/2000/svg">
  <path d="M-205,363.2c-18.7,0-33.8,15.2-33.8,33.8s15.1,33.8,33.8,33.8s33.8-15.1,33.8-33.8S-186.3,363.2-205,363.2z M-205,426.8  c-16.4,0-29.8-13.4-29.8-29.8s13.4-29.8,29.8-29.8s29.8,13.4,29.8,29.8S-188.6,426.8-205,426.8z" transform="matrix(0.9999999999999999, 0, 0, 0.9999999999999999, -5.684341886080802e-14, 5.684341886080802e-14)"/>
  <path d="M-202.2,385.4H-215l3-3l-2.8-2.8l-7.8,7.8l7.8,7.8l2.8-2.8l-3-3h12.7c6,0,10.9,4.9,10.9,10.9s-4.9,10.9-10.9,10.9h-17.3v4  h17.4c8.2,0,14.9-6.7,14.9-14.9C-187.3,392.1-194.1,385.4-202.2,385.4z" transform="matrix(0.9999999999999999, 0, 0, 0.9999999999999999, -5.684341886080802e-14, 5.684341886080802e-14)"/>
</svg>