<?xml version="1.0" encoding="UTF-8" ?>
<!DOCTYPE svg PUBLIC "-//W3C//DTD SVG 1.1//EN" "http://www.w3.org/Graphics/SVG/1.1/DTD/svg11.dtd">
<svg width="512pt" height="513pt" viewBox="0 0 512 513" version="1.1" xmlns="http://www.w3.org/2000/svg">
<g id="#200e32ff">
<path fill="#200e32" opacity="1.00" d=" M 237.47 37.64 C 262.35 35.59 287.84 41.74 309.00 54.98 C 331.18 68.67 348.67 89.88 357.63 114.37 C 366.31 137.87 367.29 164.18 360.22 188.22 C 352.89 213.24 337.11 235.73 315.88 250.91 C 296.03 265.28 271.55 273.35 247.00 273.08 C 219.59 273.38 192.31 263.30 171.34 245.71 C 145.61 224.32 129.53 191.55 129.15 158.01 C 128.54 138.40 133.12 118.67 142.19 101.28 C 156.29 73.53 181.94 51.96 211.65 42.71 C 220.03 40.08 228.72 38.46 237.47 37.64 M 239.46 69.60 C 221.26 71.23 203.60 78.79 189.95 90.95 C 165.57 112.10 155.11 147.71 164.31 178.66 C 170.27 200.04 184.94 218.80 204.19 229.82 C 232.18 246.17 269.42 244.69 295.88 225.91 C 310.81 215.55 322.45 200.42 328.23 183.16 C 334.31 165.59 334.53 146.03 328.62 128.38 C 322.00 107.80 307.06 90.22 288.20 79.78 C 273.41 71.74 256.24 68.11 239.46 69.60 Z" />
<path fill="#200e32" opacity="1.00" d=" M 210.51 319.70 C 238.61 318.09 266.86 318.11 294.90 320.70 C 315.48 322.14 335.95 325.21 356.00 330.07 C 374.82 334.81 393.84 342.26 407.70 356.33 C 428.91 377.86 430.01 415.51 410.51 438.50 C 398.45 452.85 380.67 460.85 363.01 465.95 C 321.06 477.25 277.30 479.92 234.02 479.20 C 221.67 478.47 209.22 479.18 196.95 477.26 C 176.33 475.65 155.87 472.23 135.79 467.27 C 116.85 462.37 97.65 454.51 84.30 439.66 C 64.41 417.56 64.15 380.40 84.45 358.45 C 93.35 348.77 104.88 341.89 116.98 336.96 C 133.25 330.12 150.72 326.93 168.05 324.10 C 182.10 321.79 196.34 321.04 210.51 319.70 M 211.49 351.68 C 200.04 352.87 188.51 353.23 177.13 355.13 C 159.01 357.80 140.62 360.93 123.94 368.84 C 117.08 372.22 110.32 376.50 105.83 382.83 C 100.53 390.95 100.00 401.66 103.42 410.61 C 105.88 417.21 111.31 422.19 117.19 425.81 C 125.43 430.68 134.50 434.04 143.78 436.29 C 156.26 439.26 168.85 441.83 181.58 443.46 C 189.95 444.63 198.42 444.99 206.79 446.19 C 245.51 448.27 284.57 447.86 322.97 441.93 C 339.70 438.70 356.94 436.06 372.30 428.25 C 378.84 424.92 385.18 420.42 388.85 413.91 C 393.26 405.46 393.61 395.00 389.85 386.25 C 386.94 379.54 381.02 374.70 374.84 371.10 C 362.00 363.88 347.45 360.60 333.11 357.87 C 319.82 355.35 306.40 353.50 292.90 352.64 C 265.85 350.08 238.60 350.09 211.49 351.68 Z" />
</g>
</svg>
