<?xml version="1.0" encoding="UTF-8" ?>
<!DOCTYPE svg PUBLIC "-//W3C//DTD SVG 1.1//EN" "http://www.w3.org/Graphics/SVG/1.1/DTD/svg11.dtd">
<svg width="200pt" height="200pt" viewBox="0 0 200 200" version="1.1" xmlns="http://www.w3.org/2000/svg">
<g id="#000000ff">
<path fill="#000000" opacity="1.00" d=" M 95.29 60.27 C 113.03 57.83 131.36 69.00 137.40 85.82 C 141.04 95.37 140.82 106.30 136.79 115.68 C 132.62 125.59 124.27 133.63 114.21 137.41 C 103.94 141.33 92.05 140.77 82.22 135.84 C 73.29 131.41 66.12 123.53 62.60 114.20 C 58.50 103.48 59.31 90.99 64.84 80.92 C 70.88 69.67 82.57 61.65 95.29 60.27 M 93.40 68.68 C 87.35 69.93 81.71 72.99 77.37 77.38 C 66.14 88.14 64.89 107.27 74.58 119.42 C 83.60 131.75 101.87 135.68 115.18 128.18 C 128.68 121.22 135.46 103.97 130.29 89.67 C 125.55 74.69 108.72 65.09 93.40 68.68 Z" />
<path fill="#000000" opacity="1.00" d=" M 91.20 86.77 C 88.88 84.75 90.18 80.58 93.15 80.07 C 95.33 79.47 96.97 81.27 98.36 82.64 C 103.13 87.57 108.12 92.29 112.85 97.24 C 114.68 98.90 114.19 101.80 112.40 103.27 C 107.19 108.46 102.05 113.73 96.76 118.84 C 94.74 121.12 90.62 119.82 90.10 116.88 C 89.54 115.00 90.87 113.42 92.11 112.21 C 96.19 108.16 100.28 104.10 104.32 100.00 C 100.00 95.54 95.48 91.27 91.20 86.77 Z" />
</g>
</svg>
