<?xml version="1.0" encoding="UTF-8" ?>
<!DOCTYPE svg PUBLIC "-//W3C//DTD SVG 1.1//EN" "http://www.w3.org/Graphics/SVG/1.1/DTD/svg11.dtd">
<svg width="513pt" height="513pt" viewBox="0 0 513 513" version="1.1" xmlns="http://www.w3.org/2000/svg">
<g id="#200e32ff">
<path fill="#200e32" opacity="1.00" d=" M 178.44 43.51 C 219.95 43.00 261.48 43.44 303.00 43.29 C 318.71 43.43 334.50 42.64 350.11 44.83 C 372.97 47.77 396.15 55.70 412.97 72.03 C 429.69 87.91 437.95 111.22 438.05 134.01 C 438.07 235.67 438.05 337.33 438.06 439.00 C 438.02 444.26 438.38 449.57 437.60 454.81 C 435.56 466.48 427.59 476.98 416.76 481.87 C 406.02 486.94 392.97 486.13 382.68 480.33 C 341.48 457.82 300.20 435.47 259.01 412.94 C 257.19 411.68 255.02 412.03 253.25 413.17 C 212.60 435.56 171.84 457.78 131.16 480.13 C 122.06 485.31 110.77 486.59 100.83 483.18 C 90.41 479.73 81.69 471.46 77.95 461.11 C 74.98 453.43 75.69 445.06 75.64 437.00 C 75.64 338.67 75.66 240.33 75.63 142.00 C 75.55 124.50 78.67 106.63 87.19 91.17 C 95.16 76.38 107.95 64.42 122.94 56.92 C 140.08 48.15 159.36 44.59 178.44 43.51 M 177.47 75.58 C 158.49 77.06 138.14 81.30 124.01 95.01 C 111.85 106.48 107.71 123.83 107.65 140.01 C 107.62 242.02 107.69 344.03 107.61 446.04 C 107.79 448.20 107.56 451.06 109.75 452.31 C 111.95 453.73 114.59 452.69 116.69 451.62 C 157.98 428.91 199.34 406.31 240.66 383.65 C 248.70 379.10 258.77 378.21 267.41 381.58 C 271.80 383.31 275.85 385.76 279.99 388.00 C 317.29 408.38 354.68 428.62 391.97 449.03 C 395.37 450.68 398.77 453.71 402.79 452.99 C 406.01 452.38 406.09 448.64 406.16 446.05 C 406.14 343.70 406.14 241.35 406.17 139.00 C 406.35 128.63 404.92 118.06 400.49 108.60 C 394.85 96.36 383.57 87.52 371.18 82.76 C 355.26 76.62 337.95 74.99 321.00 75.29 C 276.00 75.30 231.00 75.29 185.99 75.29 C 183.15 75.31 180.31 75.39 177.47 75.58 Z" />
<path fill="#200e32" opacity="1.00" d=" M 174.35 183.45 C 178.84 182.57 183.45 182.98 188.00 182.93 C 236.69 182.97 285.38 182.91 334.07 182.95 C 340.84 182.62 347.10 187.34 349.26 193.65 C 351.63 200.30 348.91 208.14 343.12 212.09 C 338.48 215.52 332.42 214.81 327.00 214.88 C 277.64 214.79 228.29 214.89 178.94 214.84 C 171.76 215.05 164.73 209.98 163.05 202.93 C 160.77 194.78 166.03 185.37 174.35 183.45 Z" />
</g>
</svg>
