<?xml version="1.0" encoding="utf-8"?>
<svg viewBox="0 0 32 40" xmlns="http://www.w3.org/2000/svg">
  <path d="M10,7H22a1,1,0,0,0,0-2H10a1,1,0,0,0,0,2Z"/>
  <path d="M10,11H22a1,1,0,0,0,0-2H10a1,1,0,0,0,0,2Z"/>
  <path d="M30.06,9.84s0,0,0,0h0l0,0A2.94,2.94,0,0,0,28,9V3.92A2.92,2.92,0,0,0,25.08,1H6.92A2.92,2.92,0,0,0,4,3.92V9a2.94,2.94,0,0,0-2,.78l0,0H2s0,0,0,0A3,3,0,0,0,1,12V28a3,3,0,0,0,3,3H28a3,3,0,0,0,3-3V12A3,3,0,0,0,30.06,9.84ZM6,3.92A.92.92,0,0,1,6.92,3H25.08a.92.92,0,0,1,.92.92v7.77L16,18.77,6,11.69V3.92ZM28,29H4a1,1,0,0,1-1-1V12l1.42,1,11,7.8a1,1,0,0,0,1.16,0l11-7.8L29,12V28A1,1,0,0,1,28,29Z"/>
</svg>