<?xml version="1.0" encoding="UTF-8" ?>
<!DOCTYPE svg PUBLIC "-//W3C//DTD SVG 1.1//EN" "http://www.w3.org/Graphics/SVG/1.1/DTD/svg11.dtd">
<svg width="513pt" height="513pt" viewBox="0 0 513 513" version="1.1" xmlns="http://www.w3.org/2000/svg">
<g id="#200e32ff">
<path fill="#200e32" opacity="1.00" d=" M 142.31 27.35 C 147.85 26.78 153.43 26.57 159.00 26.65 C 218.67 26.67 278.33 26.65 338.00 26.65 C 352.15 26.72 366.42 26.10 380.42 28.61 C 404.41 32.43 427.49 43.02 445.18 59.81 C 466.40 79.66 479.26 107.44 483.28 136.02 C 485.36 147.55 485.32 159.32 485.31 171.00 C 485.31 231.00 485.32 291.00 485.31 351.00 C 485.11 370.36 482.00 389.82 474.79 407.85 C 463.65 437.03 440.80 461.67 412.03 474.05 C 398.75 479.85 384.51 483.32 370.10 484.69 C 358.42 485.59 346.70 485.26 335.00 485.31 C 278.00 485.31 221.00 485.31 164.00 485.31 C 150.64 485.46 137.16 484.90 124.08 481.92 C 107.02 478.05 90.53 471.04 76.56 460.41 C 51.29 441.56 35.01 412.23 29.54 381.43 C 27.47 371.75 26.84 361.86 26.65 351.99 C 26.66 296.32 26.66 240.66 26.66 184.99 C 26.77 167.35 25.87 149.53 29.21 132.10 C 34.05 104.25 47.26 77.42 68.41 58.36 C 88.55 39.95 115.24 29.43 142.31 27.35 M 142.35 59.40 C 130.29 60.68 118.47 64.15 107.66 69.65 C 89.88 78.86 75.78 94.62 68.03 113.02 C 60.85 129.65 58.35 147.99 58.65 166.00 C 58.67 223.00 58.65 280.00 58.66 337.00 C 58.70 346.91 58.36 356.87 59.52 366.75 C 62.33 389.64 71.33 412.61 88.48 428.57 C 102.91 442.69 122.67 450.51 142.58 452.51 C 152.34 453.73 162.19 453.20 172.00 453.31 C 231.34 453.32 290.67 453.30 350.00 453.32 C 360.30 453.40 370.70 453.14 380.76 450.71 C 402.23 446.25 422.26 433.89 434.65 415.62 C 447.85 396.88 453.01 373.64 453.32 351.00 C 453.30 293.34 453.32 235.67 453.31 178.00 C 453.25 164.30 453.88 150.44 451.09 136.94 C 447.25 116.54 438.11 96.51 422.49 82.47 C 408.82 69.54 390.60 62.11 372.08 59.73 C 362.46 58.26 352.70 58.71 343.00 58.65 C 284.67 58.66 226.34 58.66 168.00 58.66 C 159.45 58.71 150.86 58.36 142.35 59.40 Z" />
<path fill="#200e32" opacity="1.00" d=" M 240.21 175.00 C 241.28 167.17 249.16 160.99 257.02 161.65 C 264.87 162.09 271.78 169.00 271.89 176.93 C 272.31 197.84 271.62 218.79 272.22 239.70 C 290.81 239.68 309.41 239.72 328.00 239.66 C 333.65 239.53 340.00 239.49 344.44 243.58 C 350.36 248.07 351.70 256.89 348.25 263.29 C 345.54 268.40 339.89 271.89 334.07 271.72 C 317.38 271.65 300.69 271.70 284.00 271.69 C 280.04 271.69 276.06 271.47 272.11 271.94 C 271.83 289.28 272.08 306.65 272.00 324.00 C 271.93 328.54 272.36 333.15 271.51 337.64 C 269.94 344.96 262.48 350.51 255.01 349.83 C 247.57 349.68 240.92 343.32 240.15 335.99 C 239.70 314.65 240.27 293.27 239.89 271.93 C 218.62 271.30 197.30 271.94 176.03 271.64 C 168.67 270.96 162.20 264.48 161.80 257.05 C 161.04 249.67 166.33 242.45 173.33 240.38 C 177.47 239.36 181.78 239.72 186.00 239.67 C 203.92 239.68 221.86 239.70 239.78 239.69 C 240.45 218.15 239.55 196.54 240.21 175.00 Z" />
</g>
</svg>
