<?xml version="1.0" encoding="UTF-8" ?>
<!DOCTYPE svg PUBLIC "-//W3C//DTD SVG 1.1//EN" "http://www.w3.org/Graphics/SVG/1.1/DTD/svg11.dtd">
<svg width="66pt" height="66pt" viewBox="0 0 66 66" version="1.1" xmlns="http://www.w3.org/2000/svg">
<g id="#8794b4ff">
<path fill="#8794b4" opacity="1.00" d=" M 18.48 0.00 L 47.30 0.00 C 52.38 0.34 57.63 2.02 61.15 5.87 C 64.37 9.17 65.75 13.78 66.00 18.29 L 66.00 48.04 C 65.64 52.42 64.29 56.91 61.15 60.12 C 57.67 63.91 52.53 65.60 47.51 66.00 L 18.87 66.00 C 13.97 65.66 8.90 64.21 5.35 60.64 C 1.78 57.24 0.17 52.29 0.00 47.45 L 0.00 17.75 C 0.39 12.96 2.16 8.07 5.87 4.85 C 9.30 1.73 13.94 0.38 18.48 0.00 M 17.19 5.24 C 11.08 5.62 5.49 10.63 5.22 16.88 C 4.96 26.60 5.24 36.34 5.09 46.06 C 4.96 49.57 5.66 53.26 7.94 56.03 C 10.80 59.58 15.54 61.01 19.96 60.89 C 29.01 60.85 38.06 60.92 47.11 60.86 C 52.12 60.87 57.46 58.33 59.57 53.59 C 61.20 50.32 60.86 46.59 60.89 43.06 C 60.78 34.34 61.03 25.61 60.78 16.89 C 60.48 10.35 54.43 5.27 48.05 5.17 C 37.77 5.08 27.47 5.00 17.19 5.24 Z" />
<path fill="#8794b4" opacity="1.00" d=" M 26.19 20.30 C 30.47 19.90 34.79 19.92 39.08 20.08 C 42.59 20.27 45.71 23.34 45.84 26.88 C 45.91 31.14 45.95 35.42 45.63 39.67 C 45.56 42.12 41.33 42.30 40.97 39.96 C 40.31 35.68 41.23 31.33 40.77 27.02 C 40.63 25.73 39.32 24.97 38.11 25.10 C 34.07 24.88 30.01 25.37 25.99 24.92 C 23.65 24.52 23.74 20.41 26.19 20.30 Z" />
<path fill="#8794b4" opacity="1.00" d=" M 33.49 29.37 C 35.00 27.24 38.38 29.42 37.68 31.69 C 35.37 35.00 32.12 37.50 29.39 40.45 C 27.29 42.40 25.55 44.88 22.95 46.22 C 20.95 46.51 20.19 44.56 19.77 43.02 C 24.29 38.42 28.72 33.71 33.49 29.37 Z" />
</g>
</svg>
