<?xml version="1.0" encoding="UTF-8" ?>
<!DOCTYPE svg PUBLIC "-//W3C//DTD SVG 1.1//EN" "http://www.w3.org/Graphics/SVG/1.1/DTD/svg11.dtd">
<svg width="513pt" height="513pt" viewBox="0 0 513 513" version="1.1" xmlns="http://www.w3.org/2000/svg">
<g id="#200e32ff">
<path fill="#200e32" opacity="1.00" d=" M 136.37 33.27 C 150.55 32.07 164.79 32.66 179.00 32.52 C 189.54 32.65 200.27 31.79 210.62 34.31 C 225.20 37.81 238.46 46.55 247.40 58.59 C 252.98 66.01 258.58 73.42 264.12 80.88 C 267.06 84.88 270.23 88.85 274.41 91.63 C 280.09 95.64 287.09 97.44 294.00 97.39 C 307.33 97.40 320.67 97.35 334.00 97.37 C 349.32 97.45 364.72 96.83 379.93 99.09 C 401.98 101.98 424.10 110.01 440.30 125.71 C 457.84 142.20 467.00 165.66 470.88 189.01 C 475.51 215.77 473.61 243.00 473.74 270.00 C 473.72 289.00 473.52 308.00 473.52 327.00 C 473.63 343.73 472.90 360.60 468.90 376.91 C 464.87 394.16 457.68 410.80 446.91 424.93 C 435.90 439.72 421.00 451.48 404.35 459.33 C 388.21 467.18 370.43 471.16 352.63 472.71 C 341.78 473.68 330.88 473.31 320.00 473.37 C 278.00 473.37 236.00 473.37 194.00 473.37 C 175.70 473.24 157.24 474.18 139.13 470.92 C 111.34 466.44 84.34 453.75 65.37 432.60 C 47.27 412.72 37.26 386.56 34.01 360.11 C 32.33 347.48 32.50 334.71 32.52 322.00 C 32.53 275.33 32.51 228.67 32.53 182.00 C 32.21 155.99 33.26 129.47 41.59 104.60 C 47.36 87.25 57.00 70.92 70.84 58.79 C 88.78 42.79 112.75 35.22 136.37 33.27 M 138.35 65.19 C 122.86 66.63 107.04 70.83 94.62 80.61 C 81.53 90.64 73.86 106.12 69.83 121.81 C 65.18 139.46 64.39 157.83 64.51 176.00 C 64.55 229.33 64.51 282.66 64.53 335.99 C 64.49 352.89 66.87 369.98 73.30 385.69 C 79.36 400.64 89.46 414.01 102.79 423.21 C 121.99 436.60 145.93 441.32 169.00 441.38 C 225.33 441.36 281.67 441.37 338.00 441.38 C 354.23 441.31 370.61 438.79 385.69 432.66 C 399.74 426.96 412.44 417.73 421.52 405.53 C 433.98 389.07 439.53 368.39 441.00 348.06 C 441.79 334.04 441.27 319.99 441.60 305.96 C 441.62 279.30 442.06 252.65 442.00 225.99 C 441.76 210.51 440.39 194.90 436.04 179.98 C 433.18 170.19 428.76 160.72 422.12 152.91 C 414.63 144.11 404.32 138.05 393.35 134.66 C 378.08 129.82 361.90 129.14 346.00 129.36 C 328.01 129.35 310.02 129.42 292.03 129.34 C 272.85 129.23 254.04 119.91 242.21 104.83 C 235.36 95.97 228.77 86.91 221.99 78.00 C 217.79 72.35 211.86 67.90 205.06 65.94 C 197.90 63.84 190.35 64.65 183.00 64.51 C 168.12 64.75 153.20 63.97 138.35 65.19 Z" />
<path fill="#200e32" opacity="1.00" d=" M 147.34 293.48 C 149.18 293.11 151.06 293.02 152.93 292.97 C 219.65 293.02 286.36 293.01 353.07 292.98 C 358.09 292.88 363.42 294.26 366.88 298.12 C 372.53 303.90 372.59 314.14 366.94 319.94 C 363.72 323.55 358.80 325.07 354.08 325.02 C 289.39 325.00 224.69 324.97 160.00 325.03 C 153.65 324.86 146.45 326.11 141.04 321.93 C 134.34 317.18 132.58 307.02 137.22 300.27 C 139.47 296.74 143.23 294.24 147.34 293.48 Z" />
</g>
</svg>
