<?xml version="1.0" encoding="UTF-8" ?>
<!DOCTYPE svg PUBLIC "-//W3C//DTD SVG 1.1//EN" "http://www.w3.org/Graphics/SVG/1.1/DTD/svg11.dtd">
<svg width="71pt" height="71pt" viewBox="0 0 71 71" version="1.1" xmlns="http://www.w3.org/2000/svg">
<g id="#8794b4ff">
<path fill="#8794b4" opacity="1.00" d=" M 32.61 0.00 L 37.94 0.00 C 46.38 0.70 54.62 4.31 60.61 10.34 C 66.64 16.29 70.23 24.48 71.00 32.88 L 71.00 37.97 C 70.28 46.68 66.45 55.17 60.06 61.18 C 54.24 66.83 46.41 70.16 38.39 71.00 L 33.10 71.00 C 24.40 70.31 15.93 66.50 9.90 60.15 C 4.20 54.31 0.85 46.44 0.00 38.37 L 0.00 33.13 C 0.72 23.93 4.94 14.99 11.93 8.91 C 17.62 3.78 25.03 0.81 32.61 0.00 M 27.47 6.72 C 20.72 8.62 14.65 12.95 10.75 18.80 C 3.05 29.75 4.21 45.79 13.37 55.55 C 22.51 66.04 39.26 68.50 51.01 61.01 C 63.64 53.72 69.01 36.54 62.80 23.34 C 57.17 10.13 41.27 2.56 27.47 6.72 Z" />
<path fill="#8794b4" opacity="1.00" d=" M 21.40 23.44 C 23.71 21.71 27.38 23.98 26.72 26.83 C 26.56 29.49 22.99 30.84 21.07 29.02 C 19.23 27.67 19.42 24.55 21.40 23.44 Z" />
<path fill="#8794b4" opacity="1.00" d=" M 46.08 23.18 C 48.51 21.92 51.66 24.27 50.99 26.97 C 50.71 29.34 47.62 30.71 45.69 29.28 C 43.36 27.98 43.62 24.18 46.08 23.18 Z" />
<path fill="#8794b4" opacity="1.00" d=" M 22.30 41.49 C 24.34 39.95 26.20 42.26 27.42 43.66 C 30.11 46.94 34.87 48.67 38.92 47.00 C 41.97 45.94 43.85 43.21 46.11 41.09 C 48.12 40.49 50.73 42.50 49.83 44.65 C 47.02 49.54 41.68 53.05 35.99 53.28 C 30.24 53.45 24.73 50.15 21.59 45.44 C 20.58 44.23 21.02 42.31 22.30 41.49 Z" />
</g>
</svg>
