<?xml version="1.0" encoding="UTF-8" ?>
<!DOCTYPE svg PUBLIC "-//W3C//DTD SVG 1.1//EN" "http://www.w3.org/Graphics/SVG/1.1/DTD/svg11.dtd">
<svg width="94pt" height="93pt" viewBox="0 0 94 93" version="1.1" xmlns="http://www.w3.org/2000/svg">
<g id="#5171ffff">
<path fill="#5171ff" opacity="1.00" d=" M 34.98 3.89 C 42.69 -1.45 53.61 -0.82 60.88 5.01 C 69.22 11.41 77.68 17.65 86.00 24.07 C 90.48 27.69 93.05 33.19 94.00 38.78 L 94.00 71.47 C 94.04 82.32 84.83 92.24 74.02 93.00 L 20.30 93.00 C 8.63 92.30 -0.69 81.05 0.00 69.49 L 0.00 47.52 C -0.51 39.14 1.14 29.66 8.11 24.17 C 17.06 17.40 25.94 10.53 34.98 3.89 M 41.46 8.69 C 33.99 12.88 27.70 18.88 20.67 23.74 C 16.72 27.07 11.67 29.51 9.19 34.26 C 7.69 36.92 7.54 40.05 7.57 43.03 C 7.62 52.69 7.49 62.35 7.64 72.01 C 7.69 79.45 14.60 85.79 21.92 85.82 C 38.64 85.87 55.37 85.86 72.10 85.83 C 79.51 85.89 86.45 79.51 86.60 72.02 C 86.72 61.67 86.65 51.32 86.65 40.98 C 86.70 35.86 83.80 31.07 79.57 28.31 C 71.81 22.45 64.07 16.55 56.27 10.72 C 52.15 7.50 46.29 6.58 41.46 8.69 Z" />
<path fill="#5171ff" opacity="1.00" d=" M 24.44 48.47 C 26.45 46.14 30.90 47.84 30.76 50.90 C 30.86 54.20 30.98 57.52 30.58 60.81 C 29.25 63.57 24.73 63.41 23.47 60.65 C 23.13 57.44 23.27 54.18 23.31 50.95 C 23.28 49.94 23.66 49.11 24.44 48.47 Z" />
<path fill="#5171ff" opacity="1.00" d=" M 45.55 48.27 C 47.74 46.18 51.75 48.00 51.80 50.96 C 51.88 54.12 52.10 57.33 51.57 60.46 C 50.38 64.29 43.74 63.13 44.20 59.00 C 44.48 55.49 42.98 51.16 45.55 48.27 Z" />
<path fill="#5171ff" opacity="1.00" d=" M 66.48 48.43 C 68.56 46.15 73.05 47.88 72.82 51.00 C 72.93 54.28 73.10 57.60 72.59 60.85 C 71.09 64.20 64.90 62.98 65.37 59.09 C 65.75 55.62 64.17 51.37 66.48 48.43 Z" />
</g>
</svg>
