<?xml version="1.0" encoding="UTF-8" ?>
<!DOCTYPE svg PUBLIC "-//W3C//DTD SVG 1.1//EN" "http://www.w3.org/Graphics/SVG/1.1/DTD/svg11.dtd">
<svg width="200pt" height="200pt" viewBox="0 0 200 200" version="1.1" xmlns="http://www.w3.org/2000/svg">
<g id="#000000ff">
<path fill="#000000" opacity="1.00" d=" M 75.56 25.87 C 95.67 24.39 115.94 24.64 135.97 27.03 C 154.94 28.92 171.30 45.22 173.39 64.15 C 175.26 84.38 175.61 104.77 174.20 125.05 C 173.80 130.09 173.70 135.18 172.61 140.13 C 168.71 157.13 153.54 171.11 136.09 172.93 C 112.37 175.69 88.33 175.75 64.59 173.22 C 45.79 171.54 29.43 155.68 26.91 137.02 C 24.34 112.49 24.49 87.72 26.72 63.17 C 28.66 49.02 38.53 36.47 51.41 30.51 C 58.92 26.87 67.41 26.67 75.56 25.87 M 72.58 39.82 C 66.26 40.48 59.64 40.82 53.97 43.99 C 46.20 48.01 41.11 56.23 40.24 64.86 C 38.16 88.79 37.97 112.95 40.64 136.84 C 42.13 147.82 51.06 157.11 61.98 159.01 C 72.88 160.75 83.97 161.24 95.00 161.34 C 99.97 160.67 104.95 161.60 109.94 161.24 C 118.38 160.98 126.82 160.34 135.21 159.29 C 141.57 158.55 147.80 155.88 152.29 151.23 C 156.45 146.99 158.92 141.27 159.67 135.40 C 161.86 113.35 161.98 91.10 160.14 69.02 C 159.86 62.63 158.26 56.09 154.24 50.98 C 149.61 44.81 142.11 41.33 134.53 40.59 C 113.98 38.13 93.18 38.05 72.58 39.82 Z" />
<path fill="#000000" opacity="1.00" d=" M 85.44 66.49 C 89.25 63.42 95.59 66.19 96.10 71.01 C 96.72 74.06 94.67 76.63 92.52 78.49 C 87.19 83.51 81.97 88.66 76.65 93.69 C 74.38 96.12 70.25 96.52 67.68 94.36 C 64.81 91.89 62.33 89.02 59.57 86.43 C 57.53 84.40 54.94 82.20 55.17 79.01 C 55.11 74.54 60.10 71.08 64.26 72.73 C 67.44 74.11 69.25 77.32 72.03 79.29 C 76.48 75.00 80.81 70.57 85.44 66.49 Z" />
<path fill="#000000" opacity="1.00" d=" M 111.27 74.29 C 113.05 73.47 115.07 73.71 116.98 73.65 C 123.99 73.76 131.00 73.54 138.00 73.74 C 143.24 73.83 146.19 80.84 142.74 84.74 C 140.21 88.13 135.59 87.22 131.93 87.32 C 125.32 87.11 118.66 87.72 112.09 87.01 C 106.27 85.52 105.69 76.51 111.27 74.29 Z" />
<path fill="#000000" opacity="1.00" d=" M 84.78 111.73 C 87.82 108.67 93.50 109.74 95.38 113.57 C 96.88 116.27 96.18 119.85 93.87 121.87 C 88.11 127.43 82.35 132.99 76.55 138.51 C 74.13 141.01 69.76 141.19 67.25 138.74 C 64.46 136.19 61.92 133.38 59.17 130.79 C 57.27 128.94 55.03 126.87 55.16 123.96 C 54.97 119.31 60.30 115.66 64.57 117.61 C 67.49 119.14 69.43 121.96 71.86 124.12 C 76.19 120.02 80.40 115.79 84.78 111.73 Z" />
<path fill="#000000" opacity="1.00" d=" M 112.41 118.62 C 119.25 118.10 126.13 118.57 132.99 118.39 C 136.39 118.36 140.63 117.88 142.85 121.10 C 146.11 124.99 143.22 131.74 138.13 131.95 C 130.74 132.17 123.35 131.94 115.96 132.05 C 113.05 132.29 109.75 131.46 108.26 128.71 C 105.87 125.04 108.13 119.54 112.41 118.62 Z" />
</g>
</svg>
