<?xml version="1.0" encoding="utf-8"?><!-- Generator: Adobe Illustrator 22.1.0, SVG Export Plug-In . SVG Version: 6.00 Build 0)  -->
<svg version="1.1" id="Layer_1" xmlns="http://www.w3.org/2000/svg" x="0px" y="0px" viewBox="0 0 66.5 63.8"
	style="enable-background:new 0 0 66.5 63.8;" xml:space="preserve">
<g transform="matrix(1, 0, 0, 1, 8.881784197001252e-16, 8.881784197001252e-16)">
	<path d="M53.3,63.8H13.2c-5.3,0-9.6-2.1-11.8-5.7c-2.1-3.6-1.9-8.4,0.7-13L22.8,7.4C25.4,2.6,29.1,0,33.3,0c4.1,0,7.8,2.6,10.5,7.4
		l20.7,37.7c2.6,4.7,2.8,9.4,0.7,13C63,61.8,58.7,63.8,53.3,63.8z M33.3,6.4c-1.7,0-3.4,1.5-4.9,4.1L7.7,48.2
		c-1.5,2.7-1.7,5.1-0.8,6.7c1,1.6,3.2,2.5,6.3,2.5h40.1c3,0,5.3-0.9,6.3-2.5c1-1.6,0.7-4.1-0.8-6.7L38.1,10.5
		C36.7,7.9,34.9,6.4,33.3,6.4z" />
</g>
    <g transform="matrix(1, 0, 0, 1, 8.881784197001252e-16, 8.881784197001252e-16)">
	<g>
		<path d="M29.4,46.4c0-2.3,1.6-3.9,3.8-3.9s3.8,1.6,3.8,3.9c0,2.2-1.5,3.9-3.8,3.9C31,50.2,29.4,48.6,29.4,46.4z M30.9,40.3
			l-1-19.3h6.8l-0.9,19.3H30.9z" />
	</g>
</g>
</svg>
