<?xml version="1.0" encoding="UTF-8" ?>
<!DOCTYPE svg PUBLIC "-//W3C//DTD SVG 1.1//EN" "http://www.w3.org/Graphics/SVG/1.1/DTD/svg11.dtd">
<svg width="405pt" height="442pt" viewBox="0 0 405 442" version="1.1" xmlns="http://www.w3.org/2000/svg">
<g id="#ffffffff">
<path fill="#ffffff" opacity="1.00" d=" M 186.41 1.65 C 201.25 -0.76 216.93 -0.49 231.14 4.86 C 242.33 8.90 252.59 15.60 260.66 24.35 C 267.24 31.65 264.99 44.63 256.59 49.57 C 252.60 51.77 247.58 52.57 243.29 50.76 C 236.99 48.16 232.35 42.93 226.59 39.43 C 214.57 32.09 199.09 30.93 186.00 36.02 C 171.76 40.85 161.03 53.42 156.73 67.62 C 154.55 75.66 155.12 84.08 154.19 92.29 C 150.32 120.14 130.63 145.01 104.69 155.68 C 97.72 158.68 90.22 159.98 82.81 161.35 C 77.07 162.17 70.82 162.37 65.62 159.40 C 56.52 154.76 54.13 140.74 61.60 133.60 C 67.21 127.96 75.80 128.75 83.02 127.32 C 97.05 125.55 108.61 115.44 115.77 103.72 C 122.24 92.22 121.45 78.58 123.23 65.91 C 128.36 34.26 154.75 7.16 186.41 1.65 Z" />
<path fill="#ffffff" opacity="1.00" d=" M 196.02 56.05 C 201.68 54.07 208.98 54.03 213.53 58.49 C 217.10 61.96 219.96 66.06 223.18 69.85 C 233.08 82.55 250.21 88.45 265.96 86.52 C 280.51 84.27 292.19 73.75 306.75 71.49 C 321.11 69.09 336.22 69.20 350.10 73.94 C 365.96 79.75 380.39 89.96 390.14 103.86 C 399.71 117.05 404.18 133.32 405.00 149.46 L 405.00 155.52 C 404.41 161.34 403.67 167.19 401.71 172.73 C 400.55 176.72 397.74 180.21 393.89 181.88 C 386.17 185.57 374.61 183.37 371.44 174.64 C 368.74 162.56 373.18 150.02 370.05 137.98 C 364.39 116.49 342.13 100.73 319.94 102.99 C 305.41 103.80 294.16 114.71 280.13 117.35 C 259.86 121.94 237.52 120.26 219.34 109.64 C 206.49 101.94 194.48 91.47 188.60 77.37 C 184.96 69.75 188.99 60.15 196.02 56.05 Z" />
<path fill="#ffffff" opacity="1.00" d=" M 59.43 72.74 C 63.67 71.72 68.38 71.50 72.30 73.69 C 78.86 76.91 83.04 84.72 81.15 91.95 C 80.44 97.33 76.06 101.23 71.33 103.33 C 63.95 106.72 55.93 109.22 49.77 114.76 C 32.15 130.07 28.49 158.89 41.96 178.02 C 49.65 189.61 63.87 193.89 73.16 203.84 C 99.92 228.81 106.30 273.29 86.11 304.14 C 80.47 313.38 65.63 312.91 59.38 304.58 C 56.56 301.09 56.17 296.26 56.90 291.98 C 58.23 284.62 62.58 278.22 63.91 270.86 C 66.27 257.58 63.39 242.93 54.33 232.65 C 46.99 223.74 36.33 218.70 27.63 211.34 C 14.39 199.91 5.58 183.76 2.14 166.67 C -1.95 147.58 1.58 127.13 11.19 110.20 C 17.71 98.51 27.56 88.94 38.74 81.71 C 45.08 77.61 52.07 74.47 59.43 72.74 Z" />
<path fill="#ffffff" opacity="1.00" d=" M 328.39 130.61 C 338.74 127.88 350.32 137.35 349.38 148.05 C 347.11 156.56 342.09 164.21 340.95 173.05 C 339.41 186.63 343.41 201.07 352.81 211.17 C 359.18 218.09 367.86 222.10 375.24 227.76 C 393.59 242.60 404.40 265.95 405.00 289.44 L 405.00 294.50 C 403.49 314.64 395.14 334.43 380.63 348.64 C 370.14 358.92 356.87 367.15 342.08 369.02 C 333.88 370.32 325.71 364.00 324.17 356.00 C 323.24 350.66 324.84 344.64 329.18 341.16 C 335.40 336.06 343.67 334.68 350.33 330.30 C 363.46 321.80 371.50 306.46 372.28 290.98 C 371.89 279.85 367.66 268.93 360.80 260.20 C 352.65 250.37 339.89 246.07 331.35 236.64 C 306.04 212.67 299.95 171.31 316.89 140.92 C 319.43 136.37 323.09 131.88 328.39 130.61 Z" />
<path fill="#ffffff" opacity="1.00" d=" M 13.37 258.51 C 20.96 255.63 31.21 258.74 34.12 266.77 C 35.85 276.82 33.50 287.01 34.25 297.12 C 36.74 321.00 60.09 340.60 84.08 338.55 C 97.91 337.28 109.52 328.91 122.42 324.64 C 141.30 319.17 162.23 320.50 180.06 328.92 C 195.52 336.39 209.76 348.07 216.85 364.06 C 221.13 372.99 214.70 384.88 204.98 386.42 C 200.65 386.82 195.82 386.60 192.31 383.71 C 187.22 379.72 184.19 373.82 179.86 369.11 C 170.37 358.19 155.20 353.42 141.03 354.81 C 125.97 355.81 114.30 367.20 99.69 369.86 C 86.33 372.31 72.36 372.21 59.21 368.61 C 46.34 364.70 34.08 358.06 24.52 348.49 C 4.38 328.51 -4.64 297.53 3.12 270.04 C 4.40 264.85 8.29 260.29 13.37 258.51 Z" />
<path fill="#ffffff" opacity="1.00" d=" M 318.46 280.73 C 325.13 279.88 332.29 278.41 338.68 281.31 C 342.74 283.01 345.45 286.79 347.15 290.71 C 349.96 298.47 346.03 308.31 338.23 311.39 C 336.25 312.27 334.06 312.35 331.94 312.39 C 312.53 312.75 293.57 325.33 286.76 343.71 C 281.74 356.05 284.05 369.75 280.59 382.45 C 273.03 412.65 245.75 436.31 215.11 440.77 C 192.74 444.08 168.98 437.95 151.46 423.53 C 147.42 419.98 142.69 416.38 141.39 410.87 C 140.41 406.31 140.72 401.19 143.18 397.13 C 146.32 392.24 152.14 389.04 158.00 389.49 C 161.78 389.65 165.02 391.84 168.02 393.93 C 173.90 398.16 179.34 403.31 186.32 405.68 C 196.46 409.18 207.86 409.69 218.03 406.02 C 231.55 401.21 242.89 390.32 247.82 376.80 C 251.10 368.21 250.16 358.85 251.35 349.89 C 253.38 332.60 261.46 316.09 273.84 303.84 C 285.84 291.76 301.66 283.54 318.46 280.73 Z" />
</g>
</svg>
