<?xml version="1.0" encoding="UTF-8" ?>
<!DOCTYPE svg PUBLIC "-//W3C//DTD SVG 1.1//EN" "http://www.w3.org/Graphics/SVG/1.1/DTD/svg11.dtd">
<svg width="128pt" height="128pt" viewBox="0 0 128 128" version="1.1" xmlns="http://www.w3.org/2000/svg">
<g id="#000000ff">
<path fill="#000000" opacity="1.00" d=" M 60.98 0.00 L 66.81 0.00 C 83.11 0.75 99.03 7.86 110.23 19.76 C 120.93 30.76 127.20 45.72 128.00 61.01 L 128.00 66.75 C 127.23 84.03 119.23 100.84 106.13 112.16 C 95.38 121.72 81.33 127.22 67.00 128.00 L 61.22 128.00 C 45.15 127.25 29.45 120.34 18.26 108.74 C 7.29 97.71 0.81 82.54 0.00 67.04 L 0.00 60.83 C 0.86 45.14 7.51 29.80 18.75 18.76 C 29.83 7.50 45.22 0.81 60.98 0.00 M 55.43 10.72 C 41.97 12.85 29.46 20.33 21.19 31.16 C 12.71 42.10 8.76 56.40 10.39 70.15 C 11.95 84.52 19.69 98.05 31.18 106.80 C 42.12 115.25 56.39 119.25 70.13 117.60 C 84.77 116.04 98.52 108.04 107.25 96.21 C 115.60 85.14 119.35 70.76 117.50 57.02 C 115.69 42.46 107.54 28.89 95.65 20.32 C 84.24 11.90 69.40 8.44 55.43 10.72 Z" />
<path fill="#000000" opacity="1.00" d=" M 57.36 21.62 C 64.25 19.70 71.97 21.05 77.74 25.28 C 84.01 29.74 87.90 37.35 87.73 45.06 C 87.69 52.93 83.44 60.62 76.81 64.85 C 70.05 69.34 60.95 69.98 53.62 66.48 C 46.04 63.01 40.57 55.35 39.87 47.03 C 38.55 35.77 46.42 24.44 57.36 21.62 M 59.32 31.51 C 52.94 33.54 48.69 40.54 50.00 47.14 C 51.08 54.38 58.58 59.84 65.82 58.55 C 73.41 57.62 79.09 49.65 77.47 42.17 C 76.20 34.11 67.01 28.65 59.32 31.51 Z" />
<path fill="#000000" opacity="1.00" d=" M 57.42 77.51 C 65.63 77.00 74.24 76.79 81.93 80.21 C 87.64 82.61 92.75 86.51 96.52 91.43 C 98.48 94.27 96.37 98.64 92.95 98.92 C 90.80 99.38 88.95 97.94 87.68 96.39 C 83.01 91.03 76.12 87.67 69.02 87.33 C 62.36 87.10 55.30 86.90 49.26 90.21 C 45.26 91.99 42.43 95.39 39.29 98.29 C 35.17 101.12 29.58 95.57 32.47 91.45 C 38.42 83.67 47.69 78.55 57.42 77.51 Z" />
</g>
</svg>
