<?xml version="1.0" encoding="UTF-8" ?>
<!DOCTYPE svg PUBLIC "-//W3C//DTD SVG 1.1//EN" "http://www.w3.org/Graphics/SVG/1.1/DTD/svg11.dtd">
<svg width="513pt" height="513pt" viewBox="0 0 513 513" version="1.1" xmlns="http://www.w3.org/2000/svg">
<g id="#200e32ff">
<path fill="#200e32" opacity="1.00" d=" M 159.45 43.66 C 166.93 42.79 174.48 42.68 182.00 42.69 C 234.66 42.77 287.33 42.63 339.99 42.65 C 365.82 42.65 392.27 49.96 412.49 66.49 C 433.00 82.86 445.64 107.69 449.60 133.39 C 452.01 147.13 451.32 161.12 451.41 175.00 C 451.41 230.00 451.41 285.00 451.41 340.00 C 451.38 350.01 451.67 360.05 450.59 370.02 C 448.53 387.25 443.31 404.29 434.04 419.04 C 423.74 435.52 408.51 448.93 390.74 456.83 C 374.58 464.22 356.70 467.35 339.00 467.29 C 284.67 467.26 230.34 467.36 176.01 467.35 C 152.01 467.39 127.49 461.28 107.80 447.18 C 87.10 432.74 73.13 409.84 67.62 385.40 C 65.25 375.11 63.95 364.57 64.01 354.00 C 63.99 295.33 64.01 236.67 64.00 178.00 C 64.11 165.67 63.56 153.31 64.86 141.03 C 67.35 115.30 78.01 89.87 96.91 71.88 C 113.74 55.65 136.39 46.34 159.45 43.66 M 161.43 75.65 C 143.51 78.03 125.88 86.09 114.18 100.17 C 101.40 115.29 96.19 135.52 96.01 155.00 C 95.99 221.33 96.01 287.66 96.00 354.00 C 95.95 365.86 97.91 377.76 102.06 388.89 C 106.66 401.36 114.64 412.70 125.45 420.53 C 139.63 431.05 157.60 435.17 175.01 435.35 C 224.34 435.39 273.67 435.25 323.00 435.29 C 334.30 435.20 345.69 435.84 356.87 433.89 C 373.45 431.21 389.67 423.52 400.65 410.57 C 409.95 400.00 415.41 386.54 417.79 372.77 C 419.94 361.98 419.33 350.93 419.41 340.00 C 419.41 278.67 419.41 217.34 419.41 156.01 C 419.44 146.10 418.14 136.17 415.34 126.66 C 410.83 112.02 402.36 98.19 389.67 89.29 C 375.20 78.51 356.75 74.63 339.00 74.64 C 285.66 74.63 232.33 74.76 179.00 74.69 C 173.13 74.68 167.24 74.83 161.43 75.65 Z" />
<path fill="#200e32" opacity="1.00" d=" M 176.37 152.41 C 178.85 151.70 181.45 151.64 184.00 151.60 C 201.33 151.66 218.66 151.69 235.99 151.59 C 240.56 151.51 245.52 151.74 249.28 154.69 C 255.66 159.04 257.95 168.34 254.14 175.10 C 251.49 180.30 245.85 183.71 240.01 183.64 C 221.67 183.71 203.33 183.55 184.99 183.70 C 178.43 184.39 171.35 182.06 167.75 176.25 C 161.81 167.98 166.74 155.17 176.37 152.41 Z" />
<path fill="#200e32" opacity="1.00" d=" M 176.38 241.50 C 178.85 240.80 181.45 240.73 184.01 240.68 C 234.35 240.77 284.69 240.64 335.03 240.74 C 343.29 240.56 351.05 247.63 351.16 255.99 C 351.92 264.83 343.89 273.03 335.07 272.72 C 283.71 272.68 232.34 272.73 180.98 272.69 C 172.62 272.84 165.11 265.36 165.21 257.02 C 164.94 250.12 169.84 243.51 176.38 241.50 Z" />
<path fill="#200e32" opacity="1.00" d=" M 177.38 330.50 C 182.20 329.60 187.13 330.07 192.00 330.00 C 237.00 329.99 282.00 330.03 327.00 329.98 C 332.78 330.04 339.18 329.30 344.19 332.83 C 351.02 337.21 353.31 347.09 349.10 354.03 C 346.23 359.43 340.01 362.23 334.06 362.02 C 286.71 361.98 239.35 362.00 192.00 362.00 C 187.39 361.95 182.75 362.31 178.17 361.69 C 170.77 360.58 165.07 353.39 165.22 345.99 C 165.10 338.86 170.43 332.08 177.38 330.50 Z" />
</g>
</svg>
