<?xml version="1.0" encoding="UTF-8" ?>
<!DOCTYPE svg PUBLIC "-//W3C//DTD SVG 1.1//EN" "http://www.w3.org/Graphics/SVG/1.1/DTD/svg11.dtd">
<svg width="200pt" height="200pt" viewBox="0 0 200 200" version="1.1" xmlns="http://www.w3.org/2000/svg">
<g id="#000000ff">
<path fill="#000000" opacity="1.00" d=" M 92.52 55.72 C 104.90 53.49 118.11 56.45 128.32 63.82 C 140.01 72.04 147.66 85.75 148.31 100.06 C 149.21 114.63 142.80 129.34 131.67 138.74 C 121.69 147.38 108.00 151.53 94.91 149.81 C 81.53 148.23 69.09 140.54 61.52 129.42 C 53.25 117.57 50.96 101.84 55.45 88.12 C 60.60 71.59 75.44 58.59 92.52 55.72 M 92.48 61.62 C 75.47 64.84 61.54 79.74 59.54 96.95 C 57.78 109.76 62.42 123.24 71.77 132.20 C 80.44 140.75 93.01 145.10 105.11 143.76 C 116.82 142.62 127.86 136.16 134.64 126.56 C 140.95 117.82 143.58 106.55 141.87 95.91 C 140.09 83.93 132.67 72.97 122.28 66.76 C 113.46 61.38 102.59 59.57 92.48 61.62 Z" />
<path fill="#000000" opacity="1.00" d=" M 89.47 86.59 C 86.80 84.13 91.14 79.80 93.60 82.48 C 99.51 88.17 105.23 94.08 111.06 99.86 C 112.77 101.16 112.82 103.79 111.17 105.17 C 105.56 110.89 99.87 116.56 94.16 122.19 C 92.92 123.81 90.10 123.85 89.08 121.97 C 88.10 120.59 88.94 118.93 90.04 117.95 C 95.13 112.82 100.26 107.73 105.37 102.63 C 100.14 97.21 94.65 92.04 89.47 86.59 Z" />
</g>
</svg>
