<?xml version="1.0" encoding="UTF-8" ?>
<!DOCTYPE svg PUBLIC "-//W3C//DTD SVG 1.1//EN" "http://www.w3.org/Graphics/SVG/1.1/DTD/svg11.dtd">
<svg width="200pt" height="200pt" viewBox="0 0 200 200" version="1.1" xmlns="http://www.w3.org/2000/svg">
<g id="#000000ff">
<path fill="#000000" opacity="1.00" d=" M 95.24 28.34 C 109.12 27.34 123.22 30.80 135.21 37.83 C 152.05 47.61 164.91 64.20 169.68 83.13 C 172.95 95.86 172.40 109.53 168.16 121.97 C 161.97 140.40 148.10 156.03 130.66 164.58 C 116.35 171.70 99.53 173.71 83.99 169.89 C 57.94 163.73 36.32 142.13 30.10 116.10 C 25.70 98.38 28.98 79.09 38.52 63.59 C 50.46 43.81 72.04 29.85 95.24 28.34 M 89.48 42.73 C 71.91 45.51 55.94 57.01 48.08 73.02 C 39.98 89.25 39.77 109.19 47.44 125.62 C 52.29 136.04 60.45 144.87 70.45 150.52 C 84.99 158.79 103.02 160.27 118.88 155.19 C 131.20 151.26 142.08 142.96 149.00 132.03 C 158.72 116.88 160.64 97.26 154.92 80.28 C 150.75 67.84 142.09 56.96 130.82 50.22 C 118.56 42.78 103.56 40.36 89.48 42.73 Z" />
<path fill="#000000" opacity="1.00" d=" M 92.77 73.94 C 92.90 69.93 96.94 66.71 100.87 67.31 C 104.59 67.67 107.55 71.24 107.26 74.97 C 107.26 82.58 107.32 90.19 107.21 97.79 C 113.09 103.27 119.84 107.75 126.07 112.83 C 128.82 115.23 132.88 116.99 133.52 120.99 C 134.37 125.04 131.12 129.25 127.01 129.51 C 124.69 129.81 122.55 128.65 120.83 127.22 C 112.55 120.74 104.22 114.33 95.92 107.87 C 93.72 106.34 92.49 103.70 92.71 101.02 C 92.76 92.00 92.63 82.96 92.77 73.94 Z" />
</g>
</svg>
