<?xml version="1.0" encoding="UTF-8" ?>
<!DOCTYPE svg PUBLIC "-//W3C//DTD SVG 1.1//EN" "http://www.w3.org/Graphics/SVG/1.1/DTD/svg11.dtd">
<svg width="90pt" height="90pt" viewBox="0 0 90 90" version="1.1" xmlns="http://www.w3.org/2000/svg">
<g id="#ffffffff">
<path fill="#ffffff" opacity="1.00" d=" M 24.05 5.20 C 35.09 -0.62 48.57 -1.48 60.29 2.78 C 72.70 7.20 82.89 17.39 87.28 29.81 C 91.67 41.95 90.48 55.99 84.00 67.16 C 77.53 78.51 65.91 86.80 53.02 89.03 C 39.74 91.50 25.44 87.66 15.33 78.68 C 6.31 70.91 0.71 59.44 0.00 47.57 L 0.00 42.34 C 0.79 26.86 10.28 12.29 24.05 5.20 M 41.89 4.33 C 41.87 7.39 41.87 10.46 41.88 13.53 C 52.23 12.49 62.82 16.91 69.42 24.93 C 71.58 22.76 73.73 20.58 75.93 18.45 C 67.62 8.72 54.65 3.35 41.89 4.33 M 37.47 18.59 C 23.79 22.15 14.61 37.37 18.20 51.12 C 21.24 65.70 37.51 75.58 51.85 71.40 C 66.12 68.05 75.66 52.00 71.45 37.88 C 67.95 23.52 51.62 14.18 37.47 18.59 Z" />
</g>
</svg>
